# xmcd
#
# Track frame offsets: 
#        150
#        25729
#        43894
#        71453
#        94061
#        113435
#        134610
#
# Disc length: 2142 seconds
#
# Revision: 1
# Processed by: cddbd v1.5.2PL0 Copyright (c) Steve Scherf et al.
# Submitted via: ExactAudioCopy v1.0b1
#
DISCID=58085c07
DTITLE=Lacrimosa - Sehnsucht (Bonus CD)
DYEAR=2009
DGENRE=Gothic
TTITLE0=I Lost My Star In Krasnodar (Special Version)
TTITLE1=Durch Nacht and Flut (Single Version)
TTITLE2=Durch Nacht and Flut
TTITLE3=Und Du Fällst
TTITLE4=Komet (Secret Discovery Remix)
TTITLE5=Durch Nacht and Flut (Zeromancer Remix)
TTITLE6=Not Every Pain Hurts
EXTD=
EXTT0=
EXTT1=
EXTT2=
EXTT3=
EXTT4=
EXTT5=
EXTT6=
PLAYORDER=
